<?xml version="1.0" encoding="utf-8"?>
<!-- Svg Vector Icons : http://www.onlinewebfonts.com/icon -->
<!DOCTYPE svg PUBLIC "-//W3C//DTD SVG 1.1//EN" "http://www.w3.org/Graphics/SVG/1.1/DTD/svg11.dtd">
<svg version="1.1" xmlns="http://www.w3.org/2000/svg" xmlns:xlink="http://www.w3.org/1999/xlink" x="0px" y="0px" viewBox="0 0 1000 1000" enable-background="new 0 0 1000 1000" xml:space="preserve">
<metadata> Svg Vector Icons : http://www.onlinewebfonts.com/icon </metadata>
<g><g transform="translate(0.000000,511.000000) scale(0.100000,-0.100000)"><path d="M1759.2,4687.1c-184.4-65.3-217-117.1-954.5-1511.5C338,2296,119,1863.9,107.5,1798.6c-19.2-99.9,0-253.5,40.3-330.3c36.5-67.2,4603.6-5834.7,4676.6-5905.8c73-69.1,147.9-80.7,234.3-34.6c28.8,15.4,138.3,136.4,243.9,268.9c105.6,132.5,205.5,245.8,222.8,251.6c17.3,5.8,30.7,21.1,30.7,34.6c0,21.1,1632.5,2045.4,3831.6,4747.7c240.1,295.8,451.3,568.5,470.5,605c42.3,84.5,55.7,282.3,25,372.6c-32.7,99.9-1373.2,2660-1428.9,2733c-26.9,32.6-101.8,86.4-167.1,119.1l-119.1,59.5l-3161.3-1.9C2179.8,4717.9,1836,4714,1759.2,4687.1z M4352,4095.6c0-15.4-1286.8-1728.5-1302.1-1732.4c-7.7-3.8-170.9,388-363,868.1l-347.6,873.9h1006.4C3898.7,4105.2,4352,4101.3,4352,4095.6z M5669.5,3179.5l679.9-908.4l-679.9-5.8c-374.5-1.9-992.9-1.9-1375.1,0L3601,2271l687.6,916.1c376.4,503.2,689.5,912.3,693.3,908.4C4987.7,4091.7,5296.9,3678.8,5669.5,3179.5z M7223.2,3273.6c-182.4-457.1-334.2-843.1-339.9-858.5c-3.8-13.5-274.6,332.3-601.1,770.2c-324.6,437.9-612.7,823.9-639.6,858.5l-46.1,61.5H6576h979.5L7223.2,3273.6z M8546.5,3070c228.5-437.9,412.9-799,409.1-802.8c-3.8-3.8-336.1-3.8-739.4-1.9l-729.8,5.8l316.9,802.8c176.7,439.8,320.7,799,324.6,797C8129.8,3867,8318,3507.9,8546.5,3070z M2450.6,2267.2c0-3.8-318.8-5.8-710.6-5.8c-389.9,0-710.6,5.8-710.6,13.5c0,13.4,735.6,1407.8,783.6,1482.7c26.9,46.1,38.4,21.1,332.3-720.2C2314.2,2616.7,2450.6,2269.1,2450.6,2267.2z M2709.9,1614.2C2715.6,1595,3119,577.1,3603-648.3c484-1225.3,898.8-2275.9,921.9-2333.5c38.4-99.9,38.4-103.7,3.8-67.2c-26.9,26.9-2971.1,3710.6-3735.5,4672.8c-13.4,17.3,176.7,23.1,943,23.1C2633.1,1646.9,2696.4,1644.9,2709.9,1614.2z M6503,1460.5C6357.1,1086,4964.6-2413.3,4960.8-2419c-5.8-5.8-1626.7,4033.2-1626.7,4052.4c0,7.7,729.8,13.5,1621,13.5h1621L6503,1460.5z M9245.6,1631.5c-11.5-28.8-3881.5-4747.7-3887.3-4741.9c-3.8,3.8,372.6,960.3,835.5,2128c462.9,1165.8,887.3,2235.6,941.1,2375.8l101.8,253.5H8245C8798.1,1646.9,9249.5,1639.2,9245.6,1631.5z"/></g></g>
</svg>