<?xml version="1.0" encoding="UTF-8" standalone="no"?>
<!-- Svg Vector Icons : http://www.onlinewebfonts.com/icon -->

<svg
   xmlns:dc="http://purl.org/dc/elements/1.1/"
   xmlns:cc="http://creativecommons.org/ns#"
   xmlns:rdf="http://www.w3.org/1999/02/22-rdf-syntax-ns#"
   xmlns:svg="http://www.w3.org/2000/svg"
   xmlns="http://www.w3.org/2000/svg"
   xmlns:sodipodi="http://sodipodi.sourceforge.net/DTD/sodipodi-0.dtd"
   xmlns:inkscape="http://www.inkscape.org/namespaces/inkscape"
   version="1.1"
   x="0px"
   y="0px"
   viewBox="0 0 1000 1000"
   enable-background="new 0 0 1000 1000"
   xml:space="preserve"
   id="svg10"
   sodipodi:docname="pound.svg"
   inkscape:version="0.92.3 (2405546, 2018-03-11)"><defs
   id="defs14" /><sodipodi:namedview
   pagecolor="#ffffff"
   bordercolor="#666666"
   borderopacity="1"
   objecttolerance="10"
   gridtolerance="10"
   guidetolerance="10"
   inkscape:pageopacity="0"
   inkscape:pageshadow="2"
   inkscape:window-width="1920"
   inkscape:window-height="1001"
   id="namedview12"
   showgrid="false"
   inkscape:zoom="0.236"
   inkscape:cx="-207.62712"
   inkscape:cy="500"
   inkscape:window-x="-9"
   inkscape:window-y="-9"
   inkscape:window-maximized="1"
   inkscape:current-layer="svg10" />
<metadata
   id="metadata2"> Svg Vector Icons : http://www.onlinewebfonts.com/icon <rdf:RDF><cc:Work
     rdf:about=""><dc:format>image/svg+xml</dc:format><dc:type
       rdf:resource="http://purl.org/dc/dcmitype/StillImage" /><dc:title /></cc:Work></rdf:RDF></metadata>

<circle
   style="opacity:1;fill:none;fill-opacity:1;stroke:#ffffff;stroke-width:37.79527559;stroke-miterlimit:4;stroke-dasharray:none;stroke-dashoffset:0;stroke-opacity:1"
   id="path818"
   cx="508.47458"
   cy="495.76273"
   r="499.99994"
   inkscape:export-xdpi="96"
   inkscape:export-ydpi="96" /><path
   style="fill:#ffffff;fill-opacity:1;stroke-width:19.105;stroke-miterlimit:4;stroke-dasharray:none"
   d="m 272.46854,879.79062 c -6.69753,-17.65991 -14.13726,-36.089 -21.67028,-53.67982 -3.42949,-8.00842 -5.24187,-12.14299 -11.6944,-26.6783 -5.37079,-12.09851 -5.73346,-12.93701 -5.63611,-13.03057 0.0286,-0.0274 1.3212,-0.64173 2.87254,-1.36508 11.24134,-5.2416 24.44777,-12.25325 35.3752,-18.78165 23.77555,-14.20429 46.2924,-31.43854 54.54088,-41.74525 17.39509,-21.73565 29.30075,-47.81842 35.24501,-77.2143 3.81187,-18.85073 4.90981,-38.57758 3.2313,-58.05763 -1.01771,-11.81099 -3.10093,-23.56046 -6.24611,-35.22829 l -0.26137,-0.96959 h -47.2801 -47.28011 v -49.41951 -49.4195 h 34.91767 c 30.14303,0 34.9089,-0.0229 34.85353,-0.16717 -0.98115,-2.5568 -6.67175,-19.44315 -8.37963,-24.86577 -5.49304,-17.44072 -8.84056,-32.8149 -11.26036,-51.7156 -3.38286,-26.42312 -3.54214,-52.64547 -0.47005,-77.38624 4.29126,-34.55913 14.70703,-66.09604 30.99413,-93.84418 11.42322,-19.46157 25.8208,-36.95714 42.23026,-51.31706 31.76163,-27.79465 71.96358,-45.36494 115.57383,-50.51167 8.5263,-1.00624 14.40634,-1.35926 24.00635,-1.44129 9.08799,-0.0777 14.154,0.0943 21.65238,0.73506 24.00337,2.05107 48.13865,8.06216 68.63488,17.09407 31.79473,14.01073 60.01855,36.75479 80.89,65.18494 9.83817,13.40112 17.65659,27.37115 24.33314,43.47867 8.08854,19.51432 12.60879,37.29601 14.66594,57.69364 0.4734,4.69347 0.46184,9.99146 -0.028,12.71422 -0.0622,0.34673 -0.12796,0.39249 -0.8996,0.62685 -2.55061,0.77474 -23.92166,5.57424 -36.63512,8.22751 -9.88922,2.06386 -16.13511,3.29223 -43.01431,8.45956 -5.07415,0.97547 -9.33226,1.80012 -9.46241,1.83258 -0.21687,0.054 -0.26434,-0.0716 -0.56783,-1.50398 -0.5666,-2.67373 -1.92839,-8.36352 -2.73691,-11.43512 -7.36962,-27.9975 -18.07612,-50.58508 -32.11503,-67.7535 -4.32178,-5.28523 -10.1441,-11.10549 -15.25312,-15.24785 -9.76223,-7.91522 -20.73079,-13.65836 -32.70992,-17.12696 -16.78948,-4.86145 -35.0688,-5.29194 -56.94111,-1.34098 -19.90642,3.59583 -36.91609,10.3223 -50.67051,20.03755 -15.89242,11.22534 -27.56567,26.37911 -35.13809,45.61477 -5.01032,12.72739 -8.2067,27.49863 -9.44167,43.63242 -0.43332,5.66077 -0.49057,7.16193 -0.55585,14.57317 -0.0652,7.40296 0.0226,11.43301 0.37879,17.39378 1.51126,25.28642 6.54929,53.288 15.09768,83.91326 1.42743,5.11391 4.09275,14.09026 5.28681,17.80513 0.18698,0.58175 0.74208,2.31378 1.23355,3.84896 l 0.89355,2.79123 h 80.4418 80.44182 v 49.4195 49.41951 h -69.81809 c -66.43821,0 -69.8152,0.01 -69.75757,0.20567 0.0333,0.11311 0.32591,1.55427 0.65016,3.20257 4.30173,21.86564 6.57398,39.78983 7.30025,57.58753 0.15906,3.89854 0.15853,14.52539 0,18.27522 -0.38485,9.04866 -1.1995,16.9257 -2.59466,25.08777 -3.59648,21.04076 -10.83815,40.74769 -22.41412,60.9964 -4.55257,7.96346 -10.55381,17.22202 -16.41848,25.33008 -0.65456,0.90495 -1.227,1.70626 -1.2721,1.78069 -0.0451,0.0744 0.64507,-0.0987 1.53373,-0.38466 16.41383,-5.28228 30.53113,-8.34896 45.33528,-9.84808 7.47981,-0.75744 11.51133,-0.94806 20.03807,-0.94743 8.54862,8.7e-4 12.68823,0.19295 20.39068,0.94739 16.34918,1.60134 31.68157,4.67915 58.29275,11.70163 3.68442,0.97229 8.788,2.31911 11.34124,2.99291 22.19252,5.85673 36.16092,8.75631 49.71328,10.31967 8.46656,0.97667 14.80591,1.30708 23.15256,1.2067 5.47732,-0.0659 7.15486,-0.13856 11.51746,-0.49906 26.21144,-2.16593 52.52079,-10.88544 80.19404,-26.57809 0.96013,-0.54446 1.76671,-0.96894 1.79237,-0.94328 0.0797,0.0795 6.3108,18.56036 9.71756,28.82065 6.59966,19.87627 10.23459,31.64693 14.48114,46.89271 1.4168,5.08657 4.52402,16.74961 4.52402,16.98116 0,0.29547 -17.44927,8.94011 -26.26696,13.01306 -26.4036,12.19602 -44.16275,17.18869 -71.57307,20.12157 -27.29014,2.92 -51.55339,2.61266 -78.91842,-0.99967 -12.42434,-1.64007 -22.48156,-3.37077 -47.06905,-8.09989 -24.24283,-4.66284 -35.82415,-6.74771 -47.5978,-8.56857 -12.64847,-1.95616 -25.35922,-2.81642 -41.60408,-2.81578 -13.45322,0 -25.00256,0.53631 -39.0185,1.81005 -57.35694,5.21253 -114.21499,20.33131 -145.45968,38.67833 -0.75532,0.44353 -1.40449,0.80642 -1.44259,0.80642 -0.0381,0 -0.12445,-0.14544 -0.19185,-0.32319 z"
   id="path816"
   inkscape:connector-curvature="0"
   inkscape:export-xdpi="96"
   inkscape:export-ydpi="96" /></svg>